# xmcd CD database file generated by Grip 3.3.1
# 
# Track frame offsets:
#       150
#       34392
#       89464
#       116526
#       152341
#       191794
#       256467
#       293696
# 
# Disc length: 4492 seconds
# 
# Revision: 1
# Processed by: cddbd v1.5.2PL0 Copyright (c) Steve Scherf et al.
# Submitted via: Grip 3.3.1
# 
DISCID=6a118a08
DTITLE=Jeroen van Veen - Piano Music by Jeroen van Veen, Volume II
DYEAR=2014
DGENRE=Blues
TTITLE0=Jeroen van Veen - Minimal Prelude 32 (piano)
TTITLE1=Sandra and Jeroen van Veen, two pianos - Minimal Prelude 33 (two pi
TTITLE1=anos)
TTITLE2=Jeroen van Veen, piano - Minimal Prelude 34 (piano)
TTITLE3=Sandra and Jeroen van Veen, piano four hands and tape - Minimal Prelu
TTITLE3=de 35 (piano four hands and tape)
TTITLE4=Sandra and Jeroen van Veen, piano four hands - Minimal Prelude 36 (
TTITLE4=piano four hands)
TTITLE5=Jeroen van Veen, piano - Minimal Prelude 38 (piano)
TTITLE6=Jeroen van Veen, piano and Frank Steijns, carillon - Ballade for Fr
TTITLE6=ank (piano and carillon)
TTITLE7=Sandra and Jeroen van Veen, prepared pianos - Slash (prepared piano
TTITLE7=s)
EXTD=
EXTT0=
EXTT1=
EXTT2=
EXTT3=
EXTT4=
EXTT5=
EXTT6=
EXTT7=
PLAYORDER=
